<?xml version="1.0" encoding="UTF-8"?>
<svg width="1352" height="245" viewBox="0 0 1352 245" version="1.1" xmlns="http://www.w3.org/2000/svg" xmlns:xlink="http://www.w3.org/1999/xlink">
    <title>Group 37@1.5x</title>
    <defs>
        <polygon id="path-1" points="2.27373675e-13 0 130.7999 0 130.7999 187.9 2.27373675e-13 187.9"></polygon>
        <polygon id="path-3" points="0 0 148.6882 0 148.6882 200 0 200"></polygon>
    </defs>
    <g id="Symbols" stroke="none" stroke-width="1" fill="none" fill-rule="evenodd">
        <g id="Logo" transform="translate(1.000000, -16.000000)">
            <g id="Group-37" transform="translate(-0.388000, 16.381221)">
                <path d="M313.4882,206.868758 C314.2882,206.868758 314.5882,206.268758 314.5882,205.768758 L314.6882,54.7687577 C290.8882,54.7687577 284.9882,55.2687577 278.6882,55.8687577 C273.3882,56.3687577 272.2882,58.0687577 271.7882,61.0687577 L267.2882,87.7687577 C262.2882,87.1687577 256.7882,86.9687577 251.7882,86.3687577 C252.8882,71.1687577 253.4882,55.7687577 254.5882,40.8687577 C259.8882,40.8687577 268.9882,41.1687577 280.0882,41.1687577 L327.1882,41.1687577 L374.0882,41.1687577 C385.4882,40.8687577 392.0882,40.8687577 398.1882,40.8687577 C398.9882,55.7687577 399.7882,70.8687577 400.3882,86.0687577 C395.6882,86.5687577 390.0882,87.1687577 384.8882,87.6687577 L380.4882,60.6687577 C380.1882,57.6687577 378.7882,55.9687577 373.7882,55.6687577 C366.2882,54.8687577 361.2882,54.8687577 337.4882,54.7687577 L336.4882,206.568758 L361.9882,207.368758 C361.9882,211.268758 361.6882,216.168758 361.6882,220.268758 C351.6882,220.268758 338.0882,219.968758 326.7882,219.968758 C315.1882,219.968758 302.3882,220.268758 290.7882,220.168758 C290.7882,215.768758 290.7882,211.368758 291.0882,207.168758 L313.4882,206.868758 Z" id="Fill-1" fill="#EE454B"></path>
                <path d="M392.2882,208.868758 L408.3882,208.068758 C408.9882,208.068758 409.1882,207.468758 409.1882,207.268758 L409.2882,120.768758 L389.0882,120.468758 C389.0882,116.868758 389.3882,112.768758 389.3882,109.168758 C400.4882,107.568758 426.2882,102.068758 427.8882,102.068758 C428.1882,102.068758 428.4882,102.368758 428.4882,102.868758 C428.7882,110.068758 428.9882,125.168758 429.5882,139.768758 L430.6882,139.768758 C446.4882,109.168758 456.4882,102.068758 468.1882,102.068758 C474.5882,102.068758 480.9882,103.468758 484.7882,105.068758 C484.7882,110.868758 480.3882,122.668758 476.9882,125.468758 C474.4882,124.968758 467.7882,123.268758 462.8882,123.268758 C460.0882,123.268758 457.3882,124.368758 453.4882,127.368758 C448.1882,131.468758 442.3882,139.468758 435.1882,152.968758 C432.0882,159.268758 430.6882,169.168758 430.4882,178.268758 C430.4882,187.868758 430.1882,198.968758 430.1882,207.768758 L456.4882,208.568758 C456.4882,212.168758 456.4882,216.568758 455.8882,220.368758 L420.6882,220.368758 C411.2882,220.368758 400.6882,220.668758 391.8882,220.668758 C391.6882,216.868758 391.9882,212.468758 392.2882,208.868758" id="Fill-3" fill="#EE454B"></path>
                <path d="M558.6882,195.268858 C558.6882,196.668858 558.6882,197.168858 557.8882,197.468858 C547.3882,204.868858 535.1882,208.768858 527.0882,208.768858 C516.2882,208.768858 508.7882,202.668858 508.7882,193.868858 C508.7882,181.468858 518.7882,171.268858 543.4882,171.268858 C551.4882,171.268858 557.3882,171.568858 558.6882,171.868858 L558.6882,195.268858 Z M722.1882,208.068858 C722.4882,187.368858 723.0882,161.268858 723.0882,141.368858 C723.0882,135.068858 721.6882,127.868858 717.7882,120.968858 C712.4882,112.168858 702.5882,102.268858 688.0882,102.168858 C676.1882,102.168858 670.0882,103.268858 642.5882,120.068858 L641.1882,119.768858 C640.3882,115.868858 638.9882,108.468858 638.1882,103.268858 C638.1882,102.668858 638.1882,102.468858 637.5882,102.468858 C635.6882,102.468858 610.3882,107.968858 599.5882,109.868858 C599.2882,113.168858 598.9882,117.268858 598.9882,121.168858 L620.3882,121.468858 L620.5882,206.868858 C620.5882,207.468858 619.9882,207.968858 619.7882,207.968858 L584.0882,208.768858 L581.5882,208.768858 C579.8882,208.768858 579.0882,207.368858 579.0882,204.668858 C579.3882,193.068858 579.6882,159.768858 579.6882,146.768858 C579.6882,116.168858 563.0882,102.168858 542.5882,102.068858 C520.6882,102.068858 505.1882,114.668858 493.1882,126.268858 C496.1882,129.868858 499.7882,133.668858 502.8882,136.768858 C512.2882,126.568858 524.4882,118.568858 536.1882,118.568858 C553.0882,118.568858 559.9882,130.168858 559.1882,159.368858 C556.3882,159.368858 549.7882,159.368858 540.0882,159.068858 C503.1882,159.068858 485.9882,180.768858 485.9882,196.268858 C485.9882,211.968858 503.6882,223.268858 517.5882,223.268858 C527.2882,223.268858 537.5882,221.368858 557.7882,210.868858 L559.1882,210.868858 C562.7882,216.368858 565.1882,218.068858 567.8882,220.568858 C579.8882,220.568858 624.7882,220.568858 629.7882,220.668858 L661.0882,220.668858 C661.3882,216.768858 661.3882,212.368858 661.3882,208.568858 L641.3882,207.968858 C641.3882,187.868858 641.6882,155.868858 642.2882,134.968858 C653.0882,126.468858 668.6882,118.968858 678.8882,119.068858 C685.5882,119.068858 692.4882,119.868858 697.6882,129.568858 C701.2882,135.668858 701.2882,146.068858 701.2882,157.368858 C701.2882,172.568858 701.2882,192.068858 700.9882,206.968858 C700.9882,207.568858 700.6882,208.068858 700.1882,208.068858 L684.0882,208.868858 C683.7882,212.768858 683.7882,217.168858 683.7882,220.968858 C691.5882,220.968858 701.7882,220.668858 710.3882,220.668858 L739.4882,220.668858 C739.7882,216.768858 739.7882,212.368858 739.7882,208.568858 L722.1882,208.068858 Z" id="Fill-5" fill="#EE454B"></path>
                <path d="M771.2882,201.768758 C771.8882,203.168758 772.0882,203.968758 773.4882,205.068758 C777.6882,208.068758 785.0882,210.868758 792.5882,210.868758 C800.5882,210.868758 807.5882,210.368758 813.3882,206.468758 C817.5882,203.468758 821.3882,198.768758 821.4882,191.068758 C821.4882,176.968758 813.1882,175.368758 789.8882,168.468758 C767.6882,161.568758 758.8882,152.768758 758.8882,137.568758 C758.8882,124.368758 767.4882,114.668758 776.3882,109.768758 C784.6882,105.068758 795.7882,102.368758 809.0882,102.368758 C823.7882,102.368758 833.4882,105.968758 836.2882,107.368758 C837.6882,117.568758 838.4882,127.468758 839.2882,137.668758 C835.0882,138.468758 829.8882,139.268758 825.1882,139.868758 L821.5882,122.468758 C820.9882,121.068758 820.4882,119.968758 819.3882,119.168758 C816.0882,116.668758 809.9882,115.268758 803.2882,115.268758 C796.0882,115.268758 789.9882,117.168758 785.7882,120.268758 C782.1882,122.968758 779.0882,127.668758 779.0882,134.868758 C779.0882,145.868758 784.3882,147.868758 806.4882,154.468758 C826.4882,160.268758 841.6882,166.668758 841.6882,187.568758 C841.6882,199.668758 835.8882,209.868758 823.8882,216.768758 C816.3882,221.468758 803.8882,223.668758 790.5882,223.668758 C775.5882,223.668758 763.3882,220.868758 757.0882,218.368758 C755.9882,207.668758 754.5882,197.168758 753.1882,186.368758 C757.5882,185.568758 762.8882,184.468758 767.2882,183.868758 L771.2882,201.768758 Z" id="Fill-7" fill="#EE454B"></path>
                <path d="M1071.8882,121.568858 C1071.8882,117.668858 1072.1882,113.568858 1072.4882,110.268858 C1083.2882,108.368858 1108.5882,102.868858 1110.4882,102.868858 C1111.0882,102.868858 1111.0882,103.168858 1111.0882,103.668858 C1111.8882,108.868858 1113.2882,116.368858 1114.0882,120.168858 L1115.4882,120.468858 C1142.9882,103.668858 1149.0882,102.568858 1160.9882,102.568858 C1175.3882,102.568858 1185.3882,112.468858 1190.5882,121.368858 C1194.4882,128.268858 1195.8882,135.468858 1195.8882,141.768858 C1195.8882,161.568858 1195.2882,187.768858 1194.9882,208.468858 L1212.6882,209.068858 C1212.6882,212.968858 1212.6882,217.368858 1212.3882,221.168858 L1183.2882,221.168858 C1174.6882,221.168858 1164.3882,221.468858 1156.6882,221.468858 C1156.6882,217.568858 1156.6882,213.168858 1156.9882,209.368858 L1173.0882,208.568858 C1173.5882,208.568858 1173.8882,208.068858 1173.8882,207.468858 C1174.1882,192.568858 1174.1882,173.068858 1174.1882,157.868858 C1174.1882,146.568858 1174.1882,136.068858 1170.5882,130.068858 C1165.2882,120.468858 1158.3882,119.568858 1151.7882,119.568858 C1141.4882,119.568858 1125.9882,126.968858 1115.1882,135.468858 C1114.5882,156.368858 1114.2882,188.368858 1114.2882,208.468858 L1134.2882,209.068858 C1134.2882,212.968858 1134.2882,217.368858 1133.9882,221.168858 L1102.6882,221.168858 C1093.7882,221.168858 1084.0882,221.468858 1075.7882,221.468858 C1075.7882,217.568858 1075.7882,213.168858 1076.0882,209.368858 L1092.6882,208.568858 C1092.9882,208.568858 1093.4882,208.068858 1093.4882,207.468858 L1093.2882,122.068858 L1071.8882,121.568858 Z" id="Fill-9" fill="#EE454B"></path>
                <g id="Group-13" transform="translate(1220.588100, 36.168758)">
                    <mask id="mask-2" fill="white">
                        <use xlink:href="#path-1"></use>
                    </mask>
                    <g id="Clip-12"></g>
                    <path d="M87.6,88.1 C79.6,83.7 70.4,80.9 60.7,80.9 C49.3,80.9 39.3,85.6 33,94.1 C26.6,103.2 23,114.2 23,129.9 C23,143.7 25.5,153.3 31.8,161.9 C37.6,169.6 46.8,173.2 55.4,173.2 C67,173.2 77.3,168.8 86.2,162.5 C87.9,161.4 87.9,160.3 87.9,158.6 C87.8,134.1 87.8,109.1 87.6,88.1 L87.6,88.1 Z M88.6,175.5 C65.3,187 59.5,187.9 49.8,187.9 C36.8,187.9 24.6,183.2 16.3,174.4 C5.5,164.2 2.27373675e-13,150.4 2.27373675e-13,132.8 C2.27373675e-13,114.6 7,97.3 18.6,84.3 C28.3,73.6 42.2,66.7 59.9,66.7 C69.9,66.7 79.3,69.2 87.3,72.2 L88.4,71.4 C88.4,50.5 88.1,39.4 87.9,19.3 L64.9,18.7 C64.9,14.6 64.9,10.4 65.2,6.9 C79.1,5.3 106.5,0 109.3,0 C109.6,0 109.9,0.3 109.9,0.8 C109.9,49.9 109.2,113.6 108.9,166.7 C108.9,170.6 109.7,172.5 111.9,172.5 L130.8,171.7 L130.8,183.5 C126.4,184.9 109.7,187.9 98.4,187.9 C95.6,185.7 92.9,181.8 90.1,175.5 L88.6,175.5 Z" id="Fill-11" fill="#EE454B" mask="url(#mask-2)"></path>
                </g>
                <path d="M1016.8882,208.668758 C1005.4882,208.668758 996.6882,206.968758 988.3882,197.668758 C984.7882,193.468758 982.2882,187.868758 980.8882,181.068758 C997.3882,153.668758 1028.9882,154.468758 1049.6882,162.668758 C1052.4882,162.368758 1057.6882,156.068758 1059.0882,152.468758 C1059.0882,140.368758 1056.5882,126.868758 1048.5882,116.868758 C1041.3882,107.768758 1030.2882,102.568758 1015.8882,102.468758 C980.4882,102.468758 957.2882,131.568758 956.7882,167.168758 C957.9882,165.868758 967.7882,154.568758 980.6882,147.568758 C980.7882,147.068758 980.6882,147.568758 980.6882,147.468758 C982.3882,135.368758 988.6882,127.868758 991.9882,124.068758 C996.6882,118.868758 1003.0882,115.568758 1012.7882,115.568758 C1020.5882,115.568758 1026.3882,118.868758 1030.4882,123.868758 C1034.6882,128.868758 1037.9882,137.668758 1037.9882,147.068758 C1037.9882,147.968758 1037.6882,148.668758 1037.0882,149.168758 C1022.6882,141.768758 1007.0882,144.468758 995.3882,150.068758 C979.7882,155.768758 937.6882,207.368758 914.1882,208.968758 C905.5882,209.568758 895.5882,206.468758 889.2882,198.468758 C882.0882,190.168758 879.0882,180.268758 879.0882,164.868758 C879.0882,147.768758 885.4882,135.668758 891.8882,128.768758 C897.6882,122.168758 904.6882,118.568758 915.4882,118.568758 C926.8882,118.568758 937.8882,124.668758 940.3882,125.468758 C943.6882,123.268758 949.5882,112.568758 949.5882,108.368758 C945.3882,105.568758 935.9882,102.568758 924.0882,102.568758 C884.6882,102.568758 856.6882,130.568758 856.6882,170.268758 C856.6882,204.968758 880.7882,224.568758 907.6882,223.768758 C938.5882,222.868758 953.3882,204.768758 962.7882,195.868758 C971.1882,212.968758 988.1882,223.868758 1012.7882,223.868758 C1024.6882,223.868758 1041.3882,219.768758 1056.8882,212.368758 C1056.2882,208.468758 1055.1882,203.868758 1053.8882,199.968758 C1043.9882,203.668758 1029.5882,208.668758 1016.8882,208.668758" id="Fill-14" fill="#EE454B"></path>
                <path d="M1010.5882,143.168758 C1010.6882,143.168758 1010.7882,143.168758 1010.8882,143.268758 C1010.8882,143.268758 1010.7882,143.268758 1010.5882,143.168758" id="Fill-16" fill="#EE454B"></path>
                <path d="M228.8882,260.218758 C228.7882,260.218758 228.7882,260.218758 228.8882,260.218758 C227.1882,260.218758 225.7882,258.818758 225.7882,257.118758 L225.9882,3.11875771 C225.9882,1.41875771 227.3882,0.0187577146 229.0882,0.0187577146 C230.7882,0.0187577146 232.1882,1.41875771 232.1882,3.11875771 L231.9882,257.118758 C231.8882,258.818758 230.4882,260.218758 228.8882,260.218758" id="Fill-18" fill="#EF474B"></path>
                <path d="M228.8882,260.218758 C228.7882,260.218758 228.7882,260.218758 228.8882,260.218758 C227.1882,260.218758 225.7882,258.818758 225.7882,257.118758 L225.9882,3.11875771 C225.9882,1.41875771 227.3882,0.0187577146 229.0882,0.0187577146 C230.7882,0.0187577146 232.1882,1.41875771 232.1882,3.11875771 L231.9882,257.118758 C231.8882,258.818758 230.4882,260.218758 228.8882,260.218758" id="Fill-20" fill="#EF474B"></path>
                <path d="M6.3882,23.2375577 L6.1882,251.937558 L142.3882,216.337558 L142.4882,64.4375577 L6.3882,23.2375577 Z M0.0882,259.937558 L0.2882,14.9375577 L148.6882,59.8375577 L148.5882,221.037558 L0.0882,259.937558 Z" id="Fill-22" fill="#5BC3B4"></path>
                <path d="M45.3882,73.0375577 L45.2882,191.237558 L193.8882,165.437558 L193.9882,99.5375577 L45.3882,73.0375577 Z M39.0882,198.637558 L39.1882,65.7375577 L200.0882,94.3375577 L199.9882,170.637558 L39.0882,198.637558 Z" id="Fill-24" fill="#1A4C80"></path>
                <path d="M228.8882,260.237558 C228.5882,260.237558 228.2882,260.237558 227.9882,260.137558 L83.6882,215.037558 L83.7882,43.9375577 L228.1882,0.137557715 C229.7882,-0.362442285 231.4882,0.537557715 231.9882,2.23755771 C232.4882,3.83755771 231.5882,5.53755771 229.8882,6.03755771 L89.8882,48.5375577 L89.7882,210.537558 L229.7882,254.237558 C231.3882,254.737558 232.2882,256.437558 231.7882,258.137558 C231.3882,259.337558 230.1882,260.237558 228.8882,260.237558" id="Fill-26" fill="#EF474B"></path>
                <path d="M86.8882,49.3375577 C85.5882,49.3375577 84.3882,48.4375577 83.9882,47.1375577 C83.4882,45.5375577 84.3882,43.8375577 86.0882,43.3375577 L228.2882,0.237557715 C229.8882,-0.262442285 231.5882,0.637557715 232.0882,2.33755771 C232.5882,3.93755771 231.6882,5.63755771 229.9882,6.13755771 L87.7882,49.2375577 C87.3882,49.2375577 87.0882,49.3375577 86.8882,49.3375577 Z" id="Fill-28" fill="#EF474B"></path>
                <path d="M196.9882,171.137558 C195.2882,171.137558 193.8882,169.737558 193.8882,168.037558 L193.9882,99.5375577 L41.7882,72.4375577 C40.0882,72.1375577 38.9882,70.5375577 39.2882,68.8375577 C39.5882,67.1375577 41.1882,66.0375577 42.8882,66.3375577 L200.1882,94.3375577 L200.0882,168.037558 C200.0882,169.737558 198.6882,171.137558 196.9882,171.137558" id="Fill-30" fill="#1A4C80"></path>
                <g id="Group-34" transform="translate(0.000000, 59.037558)">
                    <mask id="mask-4" fill="white">
                        <use xlink:href="#path-3"></use>
                    </mask>
                    <g id="Clip-33"></g>
                    <path d="M3.0882,200 C1.6882,200 0.4882,199.1 0.0882,197.7 C-0.3118,196.1 0.6882,194.4 2.2882,193.9 L142.3882,157.3 L142.4882,3.1 C142.4882,1.4 143.8882,0 145.5882,0 C147.2882,0 148.6882,1.4 148.6882,3.1 L148.5882,162 L3.8882,199.9 C3.6882,199.9 3.3882,200 3.0882,200" id="Fill-32" fill="#5BC3B4" mask="url(#mask-4)"></path>
                </g>
                <path d="M111.9843,185.938058 C110.5053,185.938058 109.1963,184.876058 108.9343,183.370058 C108.6403,181.682058 109.7703,180.077058 111.4563,179.784058 L196.4563,164.984058 C198.1403,164.690058 199.7483,165.819058 200.0423,167.505058 C200.3363,169.193058 199.2063,170.798058 197.5203,171.091058 L112.5203,185.891058 C112.3403,185.922058 112.1613,185.938058 111.9843,185.938058" id="Fill-35" fill="#1A4C80"></path>
            </g>
        </g>
    </g>
</svg>